<?xml version="1.0" encoding="UTF-8"?>
<svg width="158px" height="39px" viewBox="0 0 158 39" version="1.1" xmlns="http://www.w3.org/2000/svg" xmlns:xlink="http://www.w3.org/1999/xlink">
	<g id="no_active_window" clip-path="url(#clip-no_active_window)">
			<path id="Windowcontrols" d="M31.1,17.2h5.4c0.2-1.4,0.3-2.7,0.3-4.1h-4c-0.2,0-0.6,0-1.4,0.2c-0.1,0-0.2,0-0.3,0v-2c0.5,0.1,0.8,0.1,1,0.2
		c0.2,0,0.4,0,0.6,0h11.4c0.3,0,0.8-0.1,1.6-0.2v2c-0.8-0.2-1.4-0.2-1.6-0.2h-5.5c0,1.5-0.1,2.9-0.3,4.1h7.2c0.3,0,0.8-0.1,1.6-0.2
		v2c-0.8-0.2-1.4-0.2-1.7-0.2h-4.9v6.9c0,0.3,0.1,0.6,0.5,0.7c0.3,0.1,0.8,0.2,1.7,0.2c1,0,1.7-0.2,2-0.6c0.4-0.3,0.7-1.2,0.9-2.7
		c0.7,0.9,1.4,1.4,2,1.5c-0.4,1.4-1,2.4-1.7,2.8c-0.6,0.5-1.8,0.7-3.4,0.7c-1.6,0-2.6-0.1-3.1-0.4c-0.5-0.2-0.8-0.8-0.8-1.5v-7.5
		h-0.6c-0.7,4-3.2,7.3-7.6,10.2c-0.4-0.8-1-1.4-1.8-1.8c3.7-1.3,6.2-4,7.4-8.3h-5c-0.3,0-0.8,0.1-1.7,0.2v-2c0.4,0.1,0.8,0.1,1,0.2
		C30.7,17.2,30.9,17.2,31.1,17.2z
		M49.5,16.2l1-1.5c1.6,1,3,1.9,4.2,2.6l-1.1,1.5C52.4,18,51,17.1,49.5,16.2z M56.1,21.8
		c-1.8,2.6-3.3,4.9-4.5,6.9l-1.8-1.4c1.8-2.2,3.6-4.8,5.2-7.7C55.4,20.6,55.8,21.4,56.1,21.8z M50.9,11.7l1-1.5
		c1.3,0.7,2.8,1.6,4.5,2.6l-1.1,1.6C54,13.5,52.5,12.6,50.9,11.7z M66.3,9.9l1.2,1.8c0.1,0.1,0.1,0.3,0.1,0.4c0,0.1,0,0.1-0.1,0.2
		c-0.1,0-0.1,0.1-0.2,0.1c-0.1,0-0.3,0-0.4-0.1c-0.1,0-0.2-0.1-0.3-0.1c-0.1,0-0.3,0-0.6,0.1c-0.9,0.2-1.8,0.4-2.7,0.5v2.9h3.5
		c0.5,0,1.2-0.1,2.3-0.2v1.9c-0.9-0.1-1.6-0.2-2.3-0.2h-3.5v2.9h1.7c0.5,0,1.3-0.1,2.5-0.2c-0.1,1.2-0.2,1.9-0.2,2.1v4.5
		c0,0.6,0.1,1.4,0.1,2.3h-2.2c0-0.1,0-0.3,0.1-0.5c0.1-0.4,0.1-0.7,0.1-1h-6.1c0,0.2,0.1,0.6,0.1,1.3c0,0.2,0,0.3,0.1,0.4h-2.2
		c0.1-1,0.2-1.6,0.2-2v-5c0-0.4-0.1-1.1-0.2-2.1c1,0.1,1.7,0.2,2.3,0.2h1.9v-2.9h-3.6c-0.6,0-1.4,0.1-2.2,0.2v-1.9
		c0.9,0.1,1.6,0.2,2.2,0.2h3.6V13c-1.2,0.2-2.5,0.3-3.9,0.5c-0.2-0.6-0.6-1.3-1.1-2.1c0.4,0,0.7,0.1,1,0.1c0.1,0,0.3,0,0.4,0
		c0.1,0,0.3,0,0.4,0C61.7,11.4,64.4,10.8,66.3,9.9z M59.2,21.7v4.1h6.1v-4.1H59.2z
		M71,18.7l2,0.3c0.4,0.1,0.6,0.1,0.7,0.2s0,0.1,0,0.2c0,0.2-0.2,0.3-0.5,0.5c-0.1,0-0.2,0.4-0.2,1v4.4
		c0.1,0,0.2-0.1,0.3-0.1c0.2-0.1,0.5-0.2,0.6-0.3v-7.2h-0.8c-0.4,0-1.1,0.1-2.1,0.2c0.1-0.8,0.2-1.4,0.2-1.9v-3c0-0.4-0.1-1-0.2-1.9
		c0.9,0.1,1.6,0.2,2.1,0.2h2.9c0.5,0,1.2-0.1,2.1-0.2c-0.1,0.8-0.2,1.4-0.2,1.9V16c0,0.5,0.1,1.1,0.2,1.9c-0.9-0.1-1.6-0.2-2.1-0.2
		h-0.3V20h0.7c0.4,0,1.1-0.1,2.1-0.2v1.9c-0.9-0.1-1.6-0.2-2.1-0.2h-0.7v2.5c0.8-0.3,1.8-0.9,3-1.6c-0.1,0.6-0.1,1.1-0.1,1.4
		c0,0.3,0,0.7,0,0.9c-3.5,1.4-6,2.6-7.5,3.6l-1.2-2c0.5-0.1,0.9-0.2,1.2-0.3V21C71.2,20.6,71.1,19.9,71,18.7z M73.2,12.8v3.4h3v-3.4
		H73.2z M83.6,22.1c-0.9,3-2.8,5.3-5.6,6.8c-0.6-0.7-1.2-1.2-2.1-1.5c3.4-1.1,5.6-3.8,6.4-8.1h-1.6c-0.3,0-1,0.1-2.1,0.2v-1.9
		c0.9,0.1,1.6,0.2,2.1,0.2h1.8c0.1-1.4,0.1-2.9,0.1-4.6c-0.3,0-0.9,0.1-1.8,0.1c-0.6,0-1.1,0.1-1.4,0.1c-0.1-0.5-0.5-1.3-0.9-2.2
		c1,0.2,1.9,0.3,2.6,0.3c2.2,0,4.2-0.5,6.2-1.4l1.2,1.6v0c0.1,0.2,0.2,0.3,0.2,0.4c0,0.1,0,0.1-0.1,0.2c-0.1,0.1-0.2,0.1-0.3,0.1
		c-0.1,0-0.2,0-0.2,0c-0.1,0-0.3,0-0.4,0c-0.1,0-0.2,0-0.3,0c-0.2,0-0.5,0.1-0.9,0.2c-0.7,0.2-1.3,0.3-1.8,0.4c0,1.7,0,3.3-0.1,4.9
		h3.1c0.5,0,1.1-0.1,2-0.2v1.9c-1-0.1-1.7-0.2-2-0.2h-2.8c0.8,3.5,2.7,6.3,5.9,8.3c-0.8,0.3-1.6,0.8-2.2,1.4
		C86.3,26.9,84.6,24.6,83.6,22.1z
		M94.6,18.5l-0.5,0.3c-0.3-0.6-0.9-1.1-1.7-1.7c0.6-0.2,1.3-0.4,1.9-0.8h-1.8c0.1-0.9,0.2-1.5,0.2-1.8v-0.3
		c0-0.3-0.1-1-0.2-2c1.2,0.1,2,0.2,2.3,0.2h6c-0.6-0.5-1.2-0.9-2-1.2l1.1-1.4c1.3,0.8,2.4,1.5,3.3,2.1l-0.5,0.5h5.1
		c0.2,0,0.6,0,1.5-0.1c0.3,0,0.6-0.1,0.8-0.1c-0.1,1.1-0.2,1.7-0.2,2v0.3c0,0.4,0.1,1,0.2,1.7h-1.8c0.4,0.3,0.8,0.5,1.1,0.8
		l-1.1,1.3c0,0,0,0-0.1-0.1s-0.1,0-0.1-0.1c0,0.1,0,0.1,0,0.2c0,0.7-0.1,1-0.1,1.1V27c0,0.4,0,1,0.1,2H106c0.1-0.4,0.1-0.7,0.1-1.1
		h-9.6c0,0.3,0.1,0.8,0.2,1.4h-2.2c0.1-0.9,0.2-1.5,0.2-2v-7.8c0,0,0-0.1,0-0.1C94.7,19.2,94.7,18.9,94.6,18.5z M94.7,16.2
		c1.2-0.6,2.3-1.4,3.2-2.3h-3.3v0.6C94.5,15,94.6,15.6,94.7,16.2z M102.5,14.8l0.5-0.9h-3.8l0.7,0.5c0.3,0.2,0.4,0.4,0.4,0.5
		c0,0,0,0.1,0,0.2c0,0.1-0.3,0.1-0.7,0.2c-0.2,0-0.5,0.1-0.7,0.3c-1,0.8-1.9,1.5-2.7,2c0.2,0,0.4,0,0.7,0h2.2c0.6-0.8,1-1.7,1.5-2.6
		l1.8,0.9c0.3,0.1,0.4,0.3,0.4,0.4c0,0.1-0.2,0.2-0.4,0.3c-0.3,0.1-0.5,0.2-0.7,0.5l-0.4,0.5h4.8c0.3,0,0.7,0,1.3-0.1
		C105.7,16.4,104.1,15.5,102.5,14.8z M99.7,19.2h-3.1v2.9C97.9,21.3,98.9,20.4,99.7,19.2z M97.8,23.4c-0.3-0.3-0.8-0.5-1.2-0.7v2.6
		c1.6-0.1,2.9-0.5,4.1-1.1c-0.5-0.2-1.2-0.6-2-0.9l1.1-1.4l2.5,1.2c0.6-0.5,1-0.9,1.2-1.2h-4C99.1,22.3,98.5,22.8,97.8,23.4z
		 M97.8,26.4c-0.4-0.4-0.9-0.7-1.3-0.9v0.9H97.8z M99.6,26.4h6.6v-5.2c-0.7,1-1.5,1.9-2.2,2.6c0.4,0.2,0.8,0.4,1.3,0.6l-1,1.5
		l-1.7-1C101.7,25.6,100.7,26,99.6,26.4z M101,20.3C101,20.3,101,20.3,101,20.3C101,20.3,101,20.3,101,20.3l3.8,0.1
		c0.2,0,0.7,0,1.4-0.1v-1h-4.8c0.3,0.1,0.5,0.2,0.6,0.3c0,0.2-0.1,0.3-0.3,0.4C101.4,19.9,101.2,20.1,101,20.3z M104.4,13.9
		c1.5,0.8,2.6,1.5,3.5,2.1c0.1-0.8,0.2-1.3,0.2-1.5v-0.6H104.4z
		M115.3,12.6c1.2,0.1,2.1,0.2,2.6,0.2h8.6c0.6,0,1.5-0.1,2.6-0.2c-0.1,1-0.2,1.8-0.2,2.6v9.5
		c0,0.7,0.1,1.5,0.2,2.5h-2.3c0-0.1,0-0.2,0-0.3c0.1-0.7,0.1-1.2,0.1-1.5h-9.6c0,0.8,0.1,1.5,0.2,2.2h-2.3c0.1-0.9,0.2-1.7,0.2-2.5
		v-9.9C115.5,14.8,115.5,13.9,115.3,12.6z M117.5,14.4v9.2h9.6v-9.2H117.5z" fill="#fff"/>
	</g>
</svg>
