<?xml version="1.0" encoding="UTF-8"?>
<svg width="158px" height="39px" viewBox="0 0 158 39" version="1.1" xmlns="http://www.w3.org/2000/svg" xmlns:xlink="http://www.w3.org/1999/xlink">
    <!-- Generator: Sketch 53.2 (72643) - https://sketchapp.com -->
    <title>Group 7</title>
    <desc>Created with Sketch.</desc>
    <g id="Devices" stroke="none" stroke-width="1" fill="none" fill-rule="evenodd">
        <g id="1.1-No-Active-Window" transform="translate(-213.000000, -236.000000)">
            <g id="Group-5" transform="translate(60.000000, 110.000000)">
                <g id="Group-1">
                    <g id="windows_bg">
                        <g id="Group-7" transform="translate(153.000000, 126.000000)">
                            <rect id="Rectangle" fill="#FFFFFF" opacity="0.8" x="0" y="0" width="158" height="39" rx="3"></rect>
                            <path d="M16.8,17.3l0.6-0.8c1.1,0.6,2,1.3,2.8,1.9l-0.6,0.8C18.7,18.4,17.8,17.8,16.8,17.3z M17.4,25.8c1.4-1.9,2.5-3.7,3.1-5.3 c0.2,0.3,0.4,0.6,0.7,0.9c-1.4,2.4-2.3,4.1-2.8,5.2C18.1,26.3,17.8,26,17.4,25.8z M18.3,13.4l0.6-0.8c1.2,0.7,2.1,1.3,2.8,1.8 l-0.6,0.8C20.2,14.5,19.2,13.9,18.3,13.4z M22.4,19.9v-1c0.3,0.1,0.7,0.1,1.2,0.1h4.5c0.5,0,0.9,0,1.3-0.1 c-0.1,0.3-0.3,0.6-0.5,1.1c-0.1,0.1-0.1,0.2-0.1,0.3c-0.5,1.1-1.1,2.3-1.9,3.4c1.5,1,3.1,1.6,4.6,1.8c-0.3,0.3-0.5,0.6-0.8,1.1 c-1.8-0.7-3.3-1.4-4.5-2.2c-1.2,1-2.7,1.9-4.5,2.6c-0.2-0.3-0.5-0.7-0.9-1c1.8-0.4,3.4-1.1,4.7-2.2c-0.9-1.1-1.6-2.4-2-3.9 C23.1,19.8,22.8,19.8,22.4,19.9z M21.6,17.6c0.9-0.3,1.5-0.8,1.7-1.2c0.3-0.4,0.4-1.3,0.4-2.6c0-0.2,0-0.6-0.1-1.2 c0.3,0.1,0.7,0.1,1.2,0.1h2.6c0.4,0,0.8,0,1.2-0.1c0,0.1,0,0.3-0.1,0.8c0,0.2,0,0.3,0,0.4c0,1.5,0,2.3,0,2.3c0,0.1,0,0.1,0,0.2 c0,0.5,0,0.7-0.1,0.6c0-0.1,0.2-0.2,0.8-0.2c0.4,0,1.1-0.1,2-0.4c-0.1,0.3-0.1,0.6-0.2,1.1c0,0,0,0.1,0,0.1 c-0.6,0.1-1.2,0.1-1.6,0.1c-0.5,0-0.9,0-1.1-0.1c-0.5-0.2-0.7-0.6-0.7-1.2l0-2.8h-3c0,1.4-0.1,2.4-0.4,2.9 c-0.2,0.6-0.8,1.3-1.8,2.1C22.2,18.2,22,17.9,21.6,17.6z M26.3,23c0.7-0.7,1.3-1.8,1.8-3.2h-3.6C24.8,21,25.4,22.1,26.3,23z M33,20.2c2.5-1.1,4.2-2.8,5.3-5.2h-3.7c-0.3,0-0.7,0-1.3,0.1v-1c0.5,0.1,0.9,0.1,1.3,0.1h4c0.3-0.7,0.4-1.5,0.5-2.3 l1.3,0.3c0.1,0,0.2,0.1,0.2,0.1c0,0.1-0.1,0.1-0.2,0.2c-0.2,0.1-0.4,0.3-0.4,0.6c-0.1,0.4-0.2,0.8-0.3,1.1h6c0.4,0,0.9,0,1.4-0.1v1 c-0.5-0.1-1-0.1-1.4-0.1h-6.3c-0.3,0.7-0.6,1.3-1,1.9H43c0.5,0,1.1,0,1.7-0.1c-0.1,0.7-0.1,1.2-0.1,1.7v6.7c0,0.6-0.1,1-0.4,1.2 c-0.2,0.2-0.9,0.3-2,0.5c0-0.5-0.2-0.9-0.4-1.3c0.5,0.1,0.9,0.1,1.2,0.1c0.2,0,0.4,0,0.4,0c0.2-0.1,0.3-0.3,0.3-0.6v-2H38v2.3 c0,0.4,0,0.9,0.1,1.5H37c0.1-0.6,0.1-1.1,0.1-1.5v-6.7c-0.8,0.9-1.8,1.7-3,2.5C33.8,20.9,33.4,20.5,33,20.2z M38,17.8v1.8h5.7v-1.8 H38z M38,20.4v1.8h5.7v-1.8H38z M60.9,19.5c-0.5-0.1-0.9-0.1-1.4-0.1h-8.3v4.8c0,0.6,0.1,0.9,0.4,1c0.3,0.2,1.1,0.2,2.5,0.2h1.4c2.7,0,4.3-0.1,4.8-0.4 c0.7-0.2,1-0.9,1-2.1c0.4,0.4,0.8,0.7,1.2,0.8c-0.3,1.2-0.9,1.9-1.7,2.2c-0.8,0.3-2.4,0.5-5,0.5h-1.3c-1.9,0-3.1-0.1-3.6-0.4 c-0.3-0.1-0.5-0.3-0.6-0.5c-0.1-0.2-0.2-0.6-0.1-1.1v-6.9c0-0.4,0-0.9-0.1-1.3l1.3,0.2c0.1,0,0.2,0.1,0.2,0.1c0,0.1,0,0.1-0.2,0.2 c-0.2,0.1-0.3,0.4-0.3,1.1v0.8h8.6v-4.2h-8.6c-0.4,0-0.8,0-1.2,0.1v-1c0.4,0.1,0.8,0.1,1.2,0.1h8.2c0.4,0,0.9,0,1.4-0.1 c-0.1,0.4-0.1,0.8-0.1,1.4v3.4C60.8,18.7,60.8,19.1,60.9,19.5z M65,25.9c0.8-1.1,1.6-3,2.5-5.6l0.6,0.9c-0.6,1.5-1.3,3.3-2.1,5.2L65,25.9z M65.1,17.2l0.6-0.8c0.7,0.5,1.5,1.1,2.4,1.7 L67.5,19C66.8,18.4,66,17.8,65.1,17.2z M65.9,13.3l0.6-0.8c0.9,0.6,1.6,1.2,2.3,1.7l-0.6,0.8C67.4,14.4,66.6,13.8,65.9,13.3z  M69.8,20.7h-0.2c-0.3,0-0.7,0-1.2,0.1v-1c0.5,0.1,0.9,0.1,1.2,0.1h1.8c-0.3-0.4-0.7-0.7-1.1-1l0.5-0.5h-0.5c-0.3,0-0.7,0-1.2,0.1 c0.1-0.6,0.1-1.1,0.1-1.3v-2.1c0-0.3,0-0.8-0.1-1.3c0.4,0.1,0.7,0.1,1,0.1h0.3c0.2-0.7,0.4-1.3,0.5-1.8l1.2,0.3 c0.1,0,0.1,0.1,0.1,0.1c0,0-0.1,0.1-0.2,0.1c-0.2,0.1-0.3,0.2-0.4,0.4c-0.1,0.3-0.2,0.5-0.4,0.9h1c0.3,0,0.7,0,1.2-0.1 c-0.1,0.5-0.1,0.9-0.1,1.3v2.1c0,0.2,0,0.6,0.1,1.1c0.9-1.4,1.6-3.5,2-6.2l1.2,0.3c0.1,0,0.1,0.1,0.1,0.1c0,0-0.1,0.1-0.2,0.1 c-0.2,0.1-0.4,0.4-0.5,0.8c-0.2,0.7-0.4,1.5-0.7,2.4h2.7c0.3,0,0.7,0,1.2-0.1v1c-0.5-0.1-0.9-0.1-1.2-0.1h-0.4 c-0.1,2.6-0.5,4.6-1.1,6.2c0.8,1.4,1.8,2.4,3,3.1c-0.5,0.1-0.9,0.3-1.2,0.7c-1-1.1-1.8-2-2.3-2.9c-0.9,1.3-1.8,2.4-2.7,3.2 c-0.3-0.3-0.6-0.5-1-0.7c1.2-0.6,2.3-1.8,3.2-3.4c-0.6-1.3-1-2.7-1.2-4.1l0.8-0.2c0.2,1.2,0.5,2.3,0.9,3.3c0.4-1.2,0.7-2.9,0.8-5.2 h-1.7c-0.3,0.8-0.6,1.6-1.1,2.5c-0.4-0.2-0.8-0.3-1.2-0.4c0.1-0.1,0.2-0.3,0.3-0.3c-0.4-0.1-0.8-0.1-1-0.1H71c0.3,0.3,0.7,0.6,1,1 l-0.5,0.5h1.1c0.3,0,0.7,0,1.2-0.1v1c-0.5-0.1-0.9-0.1-1.2-0.1h-2c0,0.4,0,0.8-0.1,1.2h1.6c0.3,0,0.7,0,1.2-0.1 c-0.1,0.4-0.1,1.1-0.2,2c-0.1,0.9-0.2,1.5-0.5,1.6c-0.2,0.2-0.8,0.4-1.8,0.5c0-0.4-0.2-0.7-0.4-1c0.3,0.1,0.6,0.1,0.8,0.1 c0.5,0,0.8-0.2,0.9-0.7c0.1-0.4,0.1-1,0.1-1.8h-2c-0.3,1.4-1,2.7-2,3.9c-0.4-0.2-0.7-0.4-1.1-0.5C69,24.8,69.8,23.1,69.8,20.7z  M72.4,14.7h-2.5v1.1h2.5V14.7z M72.4,16.6h-2.5v1.1h2.5V16.6z M81,16.9l0.5-0.8c0.9,0.5,1.8,1.1,2.8,1.8l-0.6,0.8C82.9,18,82,17.4,81,16.9z M81.3,25.6c1.4-1.7,2.6-3.5,3.7-5.3 c0.2,0.4,0.3,0.8,0.6,1c-1.2,1.8-2.3,3.5-3.3,5.1L81.3,25.6z M82.1,13.3l0.5-0.8c0.9,0.5,1.9,1.1,3.1,1.8l-0.5,0.8 C84,14.4,83,13.7,82.1,13.3z M93.5,12.2l0.7,1.1c0,0.1,0.1,0.1,0.1,0.2c0,0,0,0,0,0c0,0,0,0-0.1,0c0,0-0.1,0-0.2,0 c-0.1,0-0.2,0-0.3,0c-0.2,0-0.4,0-0.7,0.1c-0.2,0-0.6,0.1-1.1,0.2c-0.5,0.1-0.8,0.2-1,0.2v2.7h3.3c0.3,0,0.7,0,1.3-0.1v1 c-0.5-0.1-0.9-0.1-1.3-0.1h-3.3v2.8h1.6c0.4,0,0.9,0,1.6-0.1C94,20.7,94,21.2,94,21.5v3.6c0,0.4,0,1,0.1,1.6H93 c0.1-0.4,0.1-0.8,0.1-1.1h-5.5c0,0.3,0,0.8,0.1,1.3h-1.1c0.1-0.5,0.1-1,0.1-1.4v-4c0-0.4,0-0.8-0.1-1.4c0.6,0.1,1.1,0.1,1.5,0.1 h1.8v-2.8h-3.3c-0.3,0-0.8,0-1.2,0.1v-1c0.5,0.1,0.9,0.1,1.2,0.1h3.3v-2.6c-1.2,0.2-2.2,0.3-3.2,0.5c-0.1-0.4-0.3-0.8-0.6-1.1 c0.2,0,0.4,0,0.7,0C89.5,13.4,91.7,13,93.5,12.2z M87.6,21v3.7h5.5V21H87.6z M98.9,26.6h-1c0.1-0.7,0.1-1.1,0.1-1.4v-8c0-0.4,0-0.9-0.1-1.6c0.4,0.1,0.8,0.1,1.3,0.1c0.4-1.2,0.8-2.3,0.9-3.4l1.1,0.3 c0.2,0,0.2,0.1,0.2,0.1c0,0.1-0.1,0.1-0.2,0.2c-0.2,0.1-0.4,0.3-0.4,0.6c-0.3,0.7-0.5,1.4-0.8,2.1h1.7c0.5,0,0.9,0,1.5-0.1 c-0.1,0.6-0.1,1.2-0.1,1.6v7.6c0,0.3,0,0.8,0.1,1.3h-1.1c0.1-0.3,0.1-0.6,0.1-0.9h-3.5C98.8,25.5,98.9,26,98.9,26.6z M98.9,16.4V20 h3.4v-3.6H98.9z M98.9,20.8v3.6h3.4v-3.6H98.9z M103.4,17.9c1.3-1.3,2.3-3.2,2.7-5.7l1.1,0.4c0.2,0.1,0.2,0.1,0.2,0.1 c0,0.1-0.1,0.1-0.3,0.3c-0.2,0.1-0.3,0.3-0.4,0.6c-0.3,0.8-0.5,1.4-0.8,2h3.2c0.4,0,0.8,0,1.3-0.1c-0.1,0.7-0.1,1.2-0.1,1.6 l-0.1,7.4c0,0.9-0.2,1.5-0.7,1.8c-0.4,0.3-1.3,0.6-2.7,0.7c0-0.4-0.2-0.8-0.5-1.2c0.4,0,0.7,0.1,1,0.1c0.6,0,1-0.1,1.2-0.2 c0.4-0.2,0.6-0.6,0.6-1.2l0.1-8.1h-3.9c-0.4,0.7-0.8,1.4-1.2,2.1C104.1,18.2,103.7,18,103.4,17.9z M105.1,19.6l0.8-0.6 c0.8,0.9,1.7,1.8,2.5,2.9l-0.9,0.7C106.8,21.5,106,20.5,105.1,19.6z M114.5,16.8h-1.1c0.1-0.5,0.1-0.9,0.1-1.3v-0.3c0-0.3,0-0.7-0.1-1.4c0.6,0.1,1.1,0.1,1.5,0.1h5.5c-0.6-0.5-1.3-0.9-1.9-1.2 l0.5-0.7c0.6,0.3,1.3,0.8,2.1,1.4l-0.5,0.6h4.6c0.3,0,0.7,0,1.4-0.1c-0.1,0.6-0.1,1-0.1,1.3v0.3c0,0.3,0,0.7,0.1,1.1h-1.1 c0.1-0.5,0.1-0.9,0.1-1.1v-0.7h-11.3v0.7C114.4,15.8,114.5,16.2,114.5,16.8z M115.1,18.3c-0.2,0.1-0.4,0.2-0.6,0.3 c-0.2-0.3-0.5-0.6-0.9-0.9c1.6-0.5,3-1.4,4.2-2.8l0.9,0.7c0.1,0.1,0.1,0.1,0.1,0.2c0,0-0.1,0.1-0.2,0.1c-0.3,0-0.5,0.1-0.7,0.3 c-0.9,0.8-1.8,1.4-2.7,2c0.6,0,1,0.1,1.3,0.1h1.8c0.5-0.7,0.9-1.4,1.2-2l1.1,0.6c0.1,0,0.1,0.1,0.1,0.1s0,0.1-0.1,0.1 c-0.3,0.1-0.6,0.2-0.7,0.4c-0.2,0.3-0.4,0.5-0.6,0.8h4.5c0.3,0,0.8,0,1.5-0.1c-0.1,0.6-0.1,1.1-0.1,1.4v5.9c0,0.2,0,0.7,0.1,1.4 h-1.1c0-0.2,0.1-0.5,0.1-0.9h-8.2c0,0.3,0,0.6,0.1,1.1h-1.1c0.1-0.5,0.1-1,0.1-1.3v-6.2C115.2,19.1,115.1,18.7,115.1,18.3z  M119.2,19h-3.1v6.2h1.5c-0.1-0.3-0.4-0.6-0.7-0.9c1.1-0.1,2.2-0.4,3.3-1.1c-0.5-0.3-1.1-0.5-1.6-0.8l0.5-0.7 c0.1,0.1,0.2,0.1,0.2,0.1h0c0,0,0,0,0,0c0,0,0,0-0.1,0c0.1,0.1,0.8,0.3,1.9,0.8c0.7-0.6,1.2-1.1,1.5-1.5h-3.8 c-0.4,0.4-0.9,0.8-1.3,1.2c-0.3-0.2-0.7-0.4-1-0.5C117.4,21.2,118.4,20.3,119.2,19z M117.8,25.2h6.4V19h-4.8l0.7,0.4 c0.1,0.1,0.1,0.1,0.2,0.1c0,0,0,0.1-0.1,0.1c-0.3,0.1-0.6,0.3-0.9,0.7h3.6c0.4,0,0.8,0,1.2-0.1c-0.6,1-1.3,1.9-2.3,2.8 c0.3,0.2,0.7,0.4,1.1,0.5l-0.5,0.8c-0.4-0.2-0.8-0.5-1.2-0.7C120.2,24.2,119.2,24.7,117.8,25.2z M121.4,15.7l0.4-0.7 c1.6,0.8,3,1.7,4.3,2.6l-0.5,0.7C124.2,17.1,122.8,16.3,121.4,15.7z M131.2,14.3c0.7,0.1,1.3,0.1,1.8,0.1h6.4c0.5,0,1.1,0,1.7-0.1c-0.1,0.6-0.1,1.1-0.1,1.6v7.9c0,0.5,0,1,0.1,1.5H140 c0.1-0.5,0.1-1,0.1-1.4h-7.9v0.3c0,0.5,0,0.9,0.1,1.4h-1.1c0.1-0.5,0.1-0.9,0.1-1.4v-8.2C131.3,15.5,131.3,14.9,131.2,14.3z  M132.2,15.3v7.8h7.9v-7.8H132.2z" id="Noactivewindow" fill="#222222" fill-rule="nonzero"></path>
                        </g>
                    </g>
                </g>
            </g>
        </g>
    </g>
</svg>